<mxfile host="app.diagrams.net" modified="2021-06-07T19:09:11.143Z" agent="5.0 (Windows NT 10.0; Win64; x64) AppleWebKit/537.36 (KHTML, like Gecko) Chrome/91.0.4472.77 Safari/537.36" etag="Y5A5XhfhxKq0JN4KUw-6" version="14.7.6" type="github">
  <diagram name="Page-1" id="929967ad-93f9-6ef4-fab6-5d389245f69c">
    <mxGraphModel dx="868" dy="450" grid="0" gridSize="10" guides="1" tooltips="1" connect="1" arrows="1" fold="1" page="1" pageScale="1.5" pageWidth="1169" pageHeight="826" background="none" math="0" shadow="0">
      <root>
        <mxCell id="0" style=";html=1;" />
        <mxCell id="1" style=";html=1;" parent="0" />
        <mxCell id="1672d66443f91eb5-1" value="&lt;p style=&quot;margin: 4px 0px 0px 10px ; text-align: left&quot;&gt;&lt;b&gt;&lt;font style=&quot;font-size: 11px&quot;&gt;Sistema de Controle de Reservas de Passagens Aéreas&lt;/font&gt;&lt;/b&gt;&lt;/p&gt;" style="html=1;strokeWidth=1;shape=mxgraph.sysml.package;html=1;overflow=fill;whiteSpace=wrap;fillColor=none;gradientColor=none;fontSize=10;align=center;labelX=327.64;" parent="1" vertex="1">
          <mxGeometry x="440" y="400" width="640" height="380" as="geometry" />
        </mxCell>
        <mxCell id="1672d66443f91eb5-2" value="" style="shape=folder;tabWidth=80;tabHeight=20;tabPosition=left;strokeWidth=1;html=1;whiteSpace=wrap;align=center;fontSize=12;fontStyle=1" parent="1" vertex="1">
          <mxGeometry x="502" y="445" width="134" height="98" as="geometry" />
        </mxCell>
        <mxCell id="1672d66443f91eb5-23" value="Title" style="text;strokeColor=none;fillColor=none;html=1;fontSize=24;fontStyle=1;verticalAlign=middle;align=center;" parent="1" vertex="1">
          <mxGeometry x="120" y="40" width="1510" height="40" as="geometry" />
        </mxCell>
        <mxCell id="Yahrrl48Z-VPbzEvbVIm-29" style="edgeStyle=orthogonalEdgeStyle;rounded=0;orthogonalLoop=1;jettySize=auto;html=1;entryX=0.564;entryY=1.013;entryDx=0;entryDy=0;entryPerimeter=0;dashed=1;fontSize=12;endArrow=classicThin;endFill=1;" edge="1" parent="1" source="1sWRAgOlvBaL6mivmBOQ-5" target="1sWRAgOlvBaL6mivmBOQ-7">
          <mxGeometry relative="1" as="geometry" />
        </mxCell>
        <mxCell id="1sWRAgOlvBaL6mivmBOQ-5" value="" style="shape=folder;tabWidth=80;tabHeight=20;tabPosition=left;strokeWidth=1;html=1;whiteSpace=wrap;align=center;fontSize=12;fontStyle=1" parent="1" vertex="1">
          <mxGeometry x="711" y="531" width="145" height="108" as="geometry" />
        </mxCell>
        <mxCell id="1sWRAgOlvBaL6mivmBOQ-6" value="" style="shape=folder;tabWidth=80;tabHeight=20;tabPosition=left;strokeWidth=1;html=1;whiteSpace=wrap;align=center;fontSize=12;fontStyle=1;" parent="1" vertex="1">
          <mxGeometry x="916" y="620" width="141" height="150" as="geometry" />
        </mxCell>
        <mxCell id="Yahrrl48Z-VPbzEvbVIm-22" style="edgeStyle=orthogonalEdgeStyle;rounded=0;orthogonalLoop=1;jettySize=auto;html=1;dashed=1;fontSize=12;endArrow=classicThin;endFill=1;" edge="1" parent="1" source="1sWRAgOlvBaL6mivmBOQ-7">
          <mxGeometry relative="1" as="geometry">
            <mxPoint x="636" y="485" as="targetPoint" />
          </mxGeometry>
        </mxCell>
        <mxCell id="1sWRAgOlvBaL6mivmBOQ-7" value="Banco de Dados" style="shape=folder;tabWidth=80;tabHeight=20;tabPosition=left;strokeWidth=1;html=1;whiteSpace=wrap;align=center;fontSize=12;fontStyle=1" parent="1" vertex="1">
          <mxGeometry x="917" y="448" width="110" height="75" as="geometry" />
        </mxCell>
        <mxCell id="CCzKdx5c1d2wQHDc-3PJ-8" style="edgeStyle=orthogonalEdgeStyle;rounded=0;orthogonalLoop=1;jettySize=auto;html=1;exitX=0.5;exitY=1;exitDx=0;exitDy=0;exitPerimeter=0;dashed=1;endArrow=open;endFill=0;" parent="1" edge="1">
          <mxGeometry relative="1" as="geometry">
            <mxPoint x="965" y="720" as="sourcePoint" />
            <mxPoint x="965" y="720" as="targetPoint" />
          </mxGeometry>
        </mxCell>
        <mxCell id="Yahrrl48Z-VPbzEvbVIm-1" value="Subsistema 1" style="text;html=1;strokeColor=none;fillColor=none;align=center;verticalAlign=middle;whiteSpace=wrap;rounded=0;fontStyle=1" vertex="1" parent="1">
          <mxGeometry x="499" y="446" width="87" height="20" as="geometry" />
        </mxCell>
        <mxCell id="Yahrrl48Z-VPbzEvbVIm-2" value="Subsistema 2" style="text;html=1;strokeColor=none;fillColor=none;align=center;verticalAlign=middle;whiteSpace=wrap;rounded=0;fontStyle=1" vertex="1" parent="1">
          <mxGeometry x="913" y="623" width="87" height="20" as="geometry" />
        </mxCell>
        <mxCell id="Yahrrl48Z-VPbzEvbVIm-3" value="Subsistema 3" style="text;html=1;strokeColor=none;fillColor=none;align=center;verticalAlign=middle;whiteSpace=wrap;rounded=0;fontStyle=1" vertex="1" parent="1">
          <mxGeometry x="707" y="531" width="87" height="20" as="geometry" />
        </mxCell>
        <mxCell id="Yahrrl48Z-VPbzEvbVIm-4" value="Subsistema 4" style="text;html=1;strokeColor=none;fillColor=none;align=center;verticalAlign=middle;whiteSpace=wrap;rounded=0;fontStyle=1" vertex="1" parent="1">
          <mxGeometry x="913" y="448" width="87" height="20" as="geometry" />
        </mxCell>
        <mxCell id="Yahrrl48Z-VPbzEvbVIm-5" value="Pagamento" style="text;html=1;strokeColor=none;fillColor=none;align=center;verticalAlign=middle;whiteSpace=wrap;rounded=0;fontStyle=1" vertex="1" parent="1">
          <mxGeometry x="961" y="645" width="40" height="20" as="geometry" />
        </mxCell>
        <mxCell id="Yahrrl48Z-VPbzEvbVIm-6" value="Passagem" style="label;fontStyle=0;strokeColor=none;fillColor=none;align=left;verticalAlign=top;overflow=hidden;spacingLeft=28;spacingRight=4;rotatable=0;points=[[0,0.5],[1,0.5]];portConstraint=eastwest;imageWidth=16;imageHeight=16;image=img/clipart/Gear_128x128.png" vertex="1" parent="1">
          <mxGeometry x="913" y="671" width="120" height="26" as="geometry" />
        </mxCell>
        <mxCell id="Yahrrl48Z-VPbzEvbVIm-8" value="View" style="text;html=1;strokeColor=none;fillColor=none;align=center;verticalAlign=middle;whiteSpace=wrap;rounded=0;fontSize=12;fontStyle=1" vertex="1" parent="1">
          <mxGeometry x="549" y="469" width="40" height="20" as="geometry" />
        </mxCell>
        <mxCell id="Yahrrl48Z-VPbzEvbVIm-9" value="Entrada de Dados" style="label;fontStyle=0;strokeColor=none;fillColor=none;align=left;verticalAlign=top;overflow=hidden;spacingLeft=28;spacingRight=4;rotatable=0;points=[[0,0.5],[1,0.5]];portConstraint=eastwest;imageWidth=16;imageHeight=16;image=img/clipart/Gear_128x128.png" vertex="1" parent="1">
          <mxGeometry x="497" y="489" width="133" height="26" as="geometry" />
        </mxCell>
        <mxCell id="Yahrrl48Z-VPbzEvbVIm-10" value="Exibição de Dados" style="label;fontStyle=0;strokeColor=none;fillColor=none;align=left;verticalAlign=top;overflow=hidden;spacingLeft=28;spacingRight=4;rotatable=0;points=[[0,0.5],[1,0.5]];portConstraint=eastwest;imageWidth=16;imageHeight=16;image=img/clipart/Gear_128x128.png" vertex="1" parent="1">
          <mxGeometry x="499" y="513" width="133" height="26" as="geometry" />
        </mxCell>
        <mxCell id="Yahrrl48Z-VPbzEvbVIm-28" style="edgeStyle=orthogonalEdgeStyle;rounded=0;orthogonalLoop=1;jettySize=auto;html=1;dashed=1;fontSize=12;endArrow=classicThin;endFill=1;" edge="1" parent="1" source="Yahrrl48Z-VPbzEvbVIm-14">
          <mxGeometry relative="1" as="geometry">
            <mxPoint x="586" y="546" as="targetPoint" />
          </mxGeometry>
        </mxCell>
        <mxCell id="Yahrrl48Z-VPbzEvbVIm-14" value="Login" style="label;fontStyle=0;strokeColor=none;fillColor=none;align=left;verticalAlign=top;overflow=hidden;spacingLeft=28;spacingRight=4;rotatable=0;points=[[0,0.5],[1,0.5]];portConstraint=eastwest;imageWidth=16;imageHeight=16;image=img/clipart/Gear_128x128.png" vertex="1" parent="1">
          <mxGeometry x="707" y="577" width="133" height="26" as="geometry" />
        </mxCell>
        <mxCell id="Yahrrl48Z-VPbzEvbVIm-15" value="Controller" style="text;html=1;strokeColor=none;fillColor=none;align=center;verticalAlign=middle;whiteSpace=wrap;rounded=0;fontSize=12;fontStyle=1" vertex="1" parent="1">
          <mxGeometry x="742.5" y="556" width="40" height="20" as="geometry" />
        </mxCell>
        <mxCell id="Yahrrl48Z-VPbzEvbVIm-17" value="Alteração de Dados" style="label;fontStyle=0;strokeColor=none;fillColor=none;align=left;verticalAlign=top;overflow=hidden;spacingLeft=28;spacingRight=4;rotatable=0;points=[[0,0.5],[1,0.5]];portConstraint=eastwest;imageWidth=16;imageHeight=16;image=img/clipart/Gear_128x128.png" vertex="1" parent="1">
          <mxGeometry x="707" y="603" width="141" height="26" as="geometry" />
        </mxCell>
        <mxCell id="Yahrrl48Z-VPbzEvbVIm-19" style="edgeStyle=orthogonalEdgeStyle;rounded=0;orthogonalLoop=1;jettySize=auto;html=1;exitX=0.5;exitY=1;exitDx=0;exitDy=0;dashed=1;fontSize=12;" edge="1" parent="1" source="Yahrrl48Z-VPbzEvbVIm-3" target="Yahrrl48Z-VPbzEvbVIm-3">
          <mxGeometry relative="1" as="geometry" />
        </mxCell>
        <mxCell id="Yahrrl48Z-VPbzEvbVIm-27" style="edgeStyle=orthogonalEdgeStyle;rounded=0;orthogonalLoop=1;jettySize=auto;html=1;dashed=1;fontSize=12;endArrow=classicThin;endFill=1;" edge="1" parent="1" source="Yahrrl48Z-VPbzEvbVIm-20">
          <mxGeometry relative="1" as="geometry">
            <mxPoint x="559" y="547" as="targetPoint" />
            <Array as="points">
              <mxPoint x="559" y="712" />
            </Array>
          </mxGeometry>
        </mxCell>
        <mxCell id="Yahrrl48Z-VPbzEvbVIm-20" value="Gerar Nota Fiscal" style="label;fontStyle=0;strokeColor=none;fillColor=none;align=left;verticalAlign=top;overflow=hidden;spacingLeft=28;spacingRight=4;rotatable=0;points=[[0,0.5],[1,0.5]];portConstraint=eastwest;imageWidth=16;imageHeight=16;image=img/clipart/Gear_128x128.png" vertex="1" parent="1">
          <mxGeometry x="913" y="699" width="133" height="26" as="geometry" />
        </mxCell>
        <mxCell id="Yahrrl48Z-VPbzEvbVIm-21" value="Gerar Cód. da &#xa;Compra" style="label;fontStyle=0;strokeColor=none;fillColor=none;align=left;verticalAlign=top;overflow=hidden;spacingLeft=28;spacingRight=4;rotatable=0;points=[[0,0.5],[1,0.5]];portConstraint=eastwest;imageWidth=16;imageHeight=16;image=img/clipart/Gear_128x128.png" vertex="1" parent="1">
          <mxGeometry x="914.5" y="725" width="133" height="35" as="geometry" />
        </mxCell>
      </root>
    </mxGraphModel>
  </diagram>
</mxfile>
